<svg width="290" height="296" viewBox="0 0 290 296" fill="none" xmlns="http://www.w3.org/2000/svg">
<path d="M118.105 0.154633C95.0417 1.5484 72.4079 9.58948 53.2067 23.3129C23.4932 44.6485 5.90103 74.8829 1.07392 112.622C-0.964191 129.24 -0.213306 140.176 4.292 158.295C16.0916 205.148 53.7431 240.529 102.765 250.821C112.634 252.966 136.555 252.966 146.745 250.821C161.656 247.712 175.815 242.459 183.217 237.205L186.113 235.168L213.789 263.258C229.021 278.697 243.395 292.313 245.755 293.492C252.191 296.923 267.638 296.816 273.645 293.278C282.441 288.239 287.053 281.806 289.199 271.621C290.379 266.582 290.272 264.759 288.77 259.506C287.697 256.075 285.766 251.465 284.479 249.32C283.084 247.176 270.319 233.989 256.053 219.944C241.893 205.791 230.201 193.891 230.201 193.247C230.201 192.711 231.166 190.889 232.239 189.28C234.17 186.6 239.211 176.093 241.786 169.339C244.146 163.12 247.257 148.861 248.544 138.032C250.582 121.735 248.115 103.08 241.357 83.0312C236.959 70.2727 230.308 66.413 224.408 73.4891C220.976 77.5632 220.976 79.2787 224.086 86.462C229.879 99.5421 231.595 109.084 231.595 127.525C231.595 141.892 231.166 145.966 229.235 152.72C226.446 162.262 223.014 171.161 220.225 176.307C214.325 187.243 208.103 197 206.923 197.429C205.314 198.072 195.875 189.388 195.875 187.35C195.875 186.6 197.806 183.491 200.165 180.382C214.54 161.297 220.761 129.777 214.754 106.725C213.896 103.616 212.394 100.078 211.321 99.0061C208.532 96.0041 203.169 96.3257 199.629 99.8638C196.518 103.08 196.411 104.688 198.985 116.268C203.598 137.067 194.051 165.479 176.888 181.775C162.192 195.82 144.6 203.111 125.184 203.111C112.527 203.111 103.409 200.967 92.2527 195.499C76.2696 187.565 63.8264 174.699 56.103 158.295C47.5215 139.962 47.0924 117.661 54.923 98.0411C64.47 73.918 84.3148 56.5493 108.236 51.2958C125.828 47.3289 145.565 50.2236 160.261 58.908C167.77 63.3038 172.061 63.6254 175.172 60.1945C182.251 52.4751 178.39 47.3289 159.403 39.2878C137.628 30.0674 109.523 30.2818 88.0692 40.0383C50.8468 56.9781 28.4275 96.3257 32.8256 136.853C36.2582 168.159 53.7431 193.998 82.2767 209.865C95.2562 217.156 111.776 220.694 129.046 220.051C139.88 219.622 143.206 218.979 152.538 215.762C164.016 211.795 170.023 208.793 178.068 202.575C180.75 200.538 183.431 198.822 183.861 198.822C185.684 198.822 193.944 208.364 193.515 210.08C193.193 212.01 179.892 220.694 170.345 225.09C152.538 233.453 128.617 237.741 113.492 235.275C76.3769 229.271 49.7741 211.474 31.7529 180.596C21.8841 163.763 17.9152 148.325 17.8079 127.311C17.8079 107.583 19.9533 97.0762 27.6767 80.0292C37.2236 58.908 58.6774 36.9291 79.1658 27.4942C97.9379 18.8099 119.285 15.379 137.413 17.9522C156.292 20.7397 173.241 27.6015 187.615 38.4301C196.626 45.1846 201.238 49.5804 201.238 51.2958C201.238 52.0463 198.664 55.2627 195.66 58.4791C192.549 61.6956 186.864 67.6995 183.002 71.7737C179.141 75.955 167.77 87.963 157.794 98.5772C147.711 109.191 135.697 122.164 130.977 127.525C126.364 132.779 121.966 137.496 121.323 137.925C120.679 138.354 114.565 132.779 106.949 124.737C99.7615 117.125 92.5745 110.585 91.18 110.264C84.9584 108.655 78.415 115.41 80.6676 121.092C81.204 122.486 89.4637 131.599 99.0106 141.356C115.423 158.188 116.603 159.153 120.464 159.153C125.077 159.153 121.108 163.013 163.05 117.876C177.853 102.008 194.695 83.9961 200.487 77.9921C214.432 63.3038 217.328 58.5863 217.328 50.8669C217.328 41.0032 212.18 34.5704 193.729 21.7047C179.999 12.0554 165.41 5.94421 148.462 2.72778C136.662 0.476288 126.793 -0.381439 118.105 0.154633ZM245.755 233.881L272.036 260.471V266.26C272.036 271.514 271.714 272.371 268.174 275.588C265.171 278.483 263.454 279.233 260.129 279.233C257.769 279.233 254.873 278.697 253.693 278.161C252.62 277.518 240.177 265.617 226.125 251.572L200.594 226.162L209.712 216.942C214.861 211.903 219.045 207.614 219.152 207.614C219.367 207.507 231.273 219.3 245.755 233.881Z" fill="url(#paint0_linear_7_463)"/>
<defs>
<linearGradient id="paint0_linear_7_463" x1="10" y1="18" x2="239.5" y2="296" gradientUnits="userSpaceOnUse">
<stop stop-color="#0088CC"/>
<stop offset="1" stop-color="#2EBD59"/>
</linearGradient>
</defs>
</svg>
